<svg xmlns="http://www.w3.org/2000/svg" viewBox="0 0 800 600" width="800" height="600">
  <defs>
    <linearGradient id="grad1" x1="0%" y1="0%" x2="100%" y2="100%">
      <stop offset="0%" style="stop-color:#4F46E5;stop-opacity:1" />
      <stop offset="100%" style="stop-color:#7C3AED;stop-opacity:1" />
    </linearGradient>
    <filter id="glow">
      <feGaussianBlur stdDeviation="3.5" result="coloredBlur"/>
      <feMerge>
        <feMergeNode in="coloredBlur"/>
        <feMergeNode in="SourceGraphic"/>
      </feMerge>
    </filter>
  </defs>
  
  <!-- Background Circle -->
  <circle cx="400" cy="300" r="250" fill="url(#grad1)" opacity="0.1"/>
  
  <!-- Central Hexagon -->
  <polygon points="400,150 574,225 574,375 400,450 226,375 226,225" fill="none" stroke="url(#grad1)" stroke-width="4" filter="url(#glow)"/>
  
  <!-- Inner Connections -->
  <line x1="400" y1="150" x2="400" y2="450" stroke="#4F46E5" stroke-width="2" opacity="0.5"/>
  <line x1="226" y1="225" x2="574" y2="375" stroke="#4F46E5" stroke-width="2" opacity="0.5"/>
  <line x1="574" y1="225" x2="226" y2="375" stroke="#4F46E5" stroke-width="2" opacity="0.5"/>
  
  <!-- Orbiting Circles -->
  <circle cx="400" cy="150" r="10" fill="#7C3AED" filter="url(#glow)">
    <animateMotion dur="10s" repeatCount="indefinite" path="M0 0 A 174,174 0 1 1 0,-1 Z" />
  </circle>
  <circle cx="574" cy="225" r="10" fill="#7C3AED" filter="url(#glow)">
    <animateMotion dur="10s" repeatCount="indefinite" path="M0 0 A 174,174 0 1 1 0,-1 Z" />
  </circle>
  <circle cx="574" cy="375" r="10" fill="#7C3AED" filter="url(#glow)">
    <animateMotion dur="10s" repeatCount="indefinite" path="M0 0 A 174,174 0 1 1 0,-1 Z" />
  </circle>
  
  <!-- Pulsating Central Circle -->
  <circle cx="400" cy="300" r="30" fill="#4F46E5" filter="url(#glow)">
    <animate attributeName="r" values="30;40;30" dur="2s" repeatCount="indefinite" />
    <animate attributeName="opacity" values="1;0.8;1" dur="2s" repeatCount="indefinite" />
  </circle>
  
  <!-- Random Small Dots -->
  <g fill="#7C3AED" opacity="0.5">
    <circle cx="300" cy="200" r="3" />
    <circle cx="500" cy="400" r="2" />
    <circle cx="450" cy="180" r="2" />
    <circle cx="350" cy="420" r="3" />
    <circle cx="580" cy="300" r="2" />
    <circle cx="220" cy="300" r="2" />
  </g>
</svg>